<?xml version="1.0" encoding="UTF-8" standalone="no"?>
<svg xmlns:dc="http://purl.org/dc/elements/1.1/" xmlns:cc="http://creativecommons.org/ns#" xmlns:rdf="http://www.w3.org/1999/02/22-rdf-syntax-ns#" xmlns:svg="http://www.w3.org/2000/svg" xmlns="http://www.w3.org/2000/svg" xmlns:sodipodi="http://sodipodi.sourceforge.net/DTD/sodipodi-0.dtd" xmlns:inkscape="http://www.inkscape.org/namespaces/inkscape" width="16px" height="16px" viewBox="0 0 16 16" id="svg2" version="1.1" inkscape:version="0.91 r13725" sodipodi:docname="9.svg">
  <defs id="defs4"/>
  <sodipodi:namedview id="base" pagecolor="#ffffff" bordercolor="#666666" borderopacity="1.0" inkscape:pageopacity="0.0" inkscape:pageshadow="2" inkscape:zoom="5.6" inkscape:cx="-7.3322901" inkscape:cy="10.816022" inkscape:document-units="px" inkscape:current-layer="layer1" showgrid="true" units="px" inkscape:snap-bbox="true" inkscape:bbox-paths="true" inkscape:bbox-nodes="true" inkscape:snap-bbox-edge-midpoints="true" inkscape:snap-bbox-midpoints="true" inkscape:window-width="1366" inkscape:window-height="715" inkscape:window-x="-8" inkscape:window-y="-8" inkscape:window-maximized="1">
    <inkscape:grid type="xygrid" id="grid3354"/>
  </sodipodi:namedview>
  
  <g inkscape:label="Layer 1" inkscape:groupmode="layer" id="layer1" transform="translate(0,-1036.3622)">
    <g id="g3456" transform="translate(-8,-2.0000001)">
      <path style="fill:none;stroke:#000000;stroke-width:0.99999988;stroke-linecap:round;stroke-linejoin:round;stroke-miterlimit:34.17825699;stroke-dasharray:none;stroke-opacity:1" inkscape:connector-curvature="0" id="path5471" d="m 23.50037,1046.8614 c 0,3.864 -3.14854,7.0006 -7.02063,7.0006 -3.87317,0 -6.9797401,-3.1366 -6.9797401,-7.0006 0,-3.8624 3.1065701,-6.9992 6.9797401,-6.9992 3.87209,0 7.02063,3.1368 7.02063,6.9992 l 0,0 z" stroke-miterlimit="10"/>
      <g transform="matrix(0.87419449,0,0,0.88800692,-147.41141,51.528879)" id="g5569">
        <path sodipodi:nodetypes="cssssc" inkscape:connector-curvature="0" id="path5557" d="m 187.50017,1120.8586 0,0 c -1.108,0 -2,-0.7806 -2,-1.75 0,-0.9695 0.892,-1.75 2,-1.75 l 0,0 c 1.108,0 2,0.7805 2,1.75" style="fill:none;stroke:#000000;stroke-width:1.13497901;stroke-linecap:round;stroke-linejoin:round;stroke-miterlimit:4;stroke-dasharray:none"/>
        <path sodipodi:nodetypes="cssssc" inkscape:connector-curvature="0" id="path5559" d="m 187.50017,1120.8586 0,0 c 1.108,0 2,0.7805 2,1.75 0,0.9694 -0.892,1.75 -2,1.75 l 0,0 c -1.108,0 -2,-0.7806 -2,-1.75" style="fill:none;stroke:#000000;stroke-width:1.13497901;stroke-linecap:round;stroke-linejoin:round;stroke-miterlimit:4;stroke-dasharray:none"/>
        <path sodipodi:nodetypes="cc" inkscape:connector-curvature="0" id="path5561" d="m 187.50022,1124.3657 0,0.9929" style="fill:none;fill-rule:evenodd;stroke:#000000;stroke-width:1.13497901px;stroke-linecap:round;stroke-linejoin:round;stroke-opacity:1"/>
        <path style="fill:none;fill-rule:evenodd;stroke:#000000;stroke-width:1.13497901px;stroke-linecap:round;stroke-linejoin:round;stroke-opacity:1" d="m 187.50022,1116.3657 0,0.9929" id="path5563" inkscape:connector-curvature="0" sodipodi:nodetypes="cc"/>
      </g>
    </g>
  </g>

	
	
	
	<metadata>
		<rdf:RDF xmlns:rdf="http://www.w3.org/1999/02/22-rdf-syntax-ns#" xmlns:rdfs="http://www.w3.org/2000/01/rdf-schema#" xmlns:dc="http://purl.org/dc/elements/1.1/">
			<rdf:Description about="https://iconscout.com/legal#licenses" dc:title="Currency, Financial, Money, Price, American, Dollar, Sign" dc:description="Currency, Financial, Money, Price, American, Dollar, Sign" dc:publisher="Iconscout" dc:date="2016-12-14" dc:format="image/svg+xml" dc:language="en">
				<dc:creator>
					<rdf:Bag>
						<rdf:li>Mohit Gandhi</rdf:li>
					</rdf:Bag>
				</dc:creator>
			</rdf:Description>
		</rdf:RDF>
    </metadata></svg>
